<?xml version="1.0" encoding="UTF-8" standalone="no"?>
<!-- Created with Inkscape (http://www.inkscape.org/) -->

<svg
   xmlns:dc="http://purl.org/dc/elements/1.1/"
   xmlns:cc="http://creativecommons.org/ns#"
   xmlns:rdf="http://www.w3.org/1999/02/22-rdf-syntax-ns#"
   xmlns:svg="http://www.w3.org/2000/svg"
   xmlns="http://www.w3.org/2000/svg"
   xmlns:sodipodi="http://sodipodi.sourceforge.net/DTD/sodipodi-0.dtd"
   xmlns:inkscape="http://www.inkscape.org/namespaces/inkscape"
   version="1.1"
   id="svg29"
   xml:space="preserve"
   width="157.33333"
   height="41.333332"
   viewBox="0 0 157.33333 41.333332"
   sodipodi:docname="ibzlogo.svg"
   inkscape:version="0.92.3 (2405546, 2018-03-11)"><metadata
     id="metadata35"><rdf:RDF><cc:Work
         rdf:about=""><dc:format>image/svg+xml</dc:format><dc:type
           rdf:resource="http://purl.org/dc/dcmitype/StillImage" /><dc:title></dc:title></cc:Work></rdf:RDF></metadata><defs
     id="defs33" /><sodipodi:namedview
     pagecolor="#ffffff"
     bordercolor="#666666"
     borderopacity="1"
     objecttolerance="10"
     gridtolerance="10"
     guidetolerance="10"
     inkscape:pageopacity="0"
     inkscape:pageshadow="2"
     inkscape:window-width="1920"
     inkscape:window-height="1035"
     id="namedview31"
     showgrid="false"
     inkscape:zoom="5.4597459"
     inkscape:cx="65.115952"
     inkscape:cy="28.297368"
     inkscape:window-x="1680"
     inkscape:window-y="45"
     inkscape:window-maximized="0"
     inkscape:current-layer="g37" /><g
     id="g37"
     inkscape:groupmode="layer"
     inkscape:label="ink_ext_XXXXXX"
     transform="matrix(1.3333333,0,0,-1.3333333,0,41.333333)"><g
       id="g39"
       transform="scale(0.1)"><path
         d="m 930.082,156.711 c -15.242,0.16 -27.703,0.59 -27.703,0.98 0,1.321 17.742,20.27 92.781,99.059 l 44.06,46.25 15.55,-15.98 c 8.55,-8.79 25.78,-27.032 38.35,-40.54 12.54,-13.519 36.41,-39.109 53.05,-56.839 16.64,-17.731 29.65,-32.301 28.87,-32.422 -2.38,-0.309 -216.29,-0.739 -244.958,-0.508 z"
         style="fill:#ff0000;fill-opacity:1;fill-rule:nonzero;stroke:none"
         id="path41"
         inkscape:connector-curvature="0" /><path
         d="m 3.67188,31.4023 v 18.3985 l 4.95703,0.5 c 2.74219,0.2812 12.66019,0.668 22.07029,0.8984 17.5391,0.3906 19.5703,0.7813 23.8321,4.6524 6.25,5.6992 6.8789,16.4101 6.8789,115.8984 v 83.441 l -3.6407,2.418 c -5.9297,3.903 -9.9609,4.571 -32.5703,5.121 l -21.52732,0.54 v 36.679 H 223.359 V 263.23 l -22.968,-0.39 c -24.692,-0.43 -26.762,-0.82 -30.27,-5.578 -3.09,-4.141 -3.519,-16.801 -3.562,-98.91 -0.039,-82.4614 0.351,-91.4106 4.031,-98.9418 3.469,-7.0391 5.82,-7.6993 29.879,-8.5586 11.293,-0.3907 20.621,-0.7813 20.781,-0.8203 0.121,-0.0821 0.23,-8.4024 0.23,-18.5508 L 221.48,13 H 3.67188 Z"
         style="fill:#000000;fill-opacity:1;fill-rule:nonzero;stroke:none"
         id="path43"
         inkscape:connector-curvature="0" /><path
         d="m 282.07,26.6289 v 16.6797 h 8.75 c 13.789,0.043 40.078,1.7617 44.84,2.9727 6.57,1.6406 7.039,2.9296 8.09,22.1875 1.332,23.2421 0.512,177.3402 -0.941,183.5902 -1.477,6.41 -3.899,10.941 -7.071,13.242 -2.5,1.879 -4.136,2 -28.156,2.269 l -25.512,0.27 v 32.312 l 113.399,-0.472 c 68.402,-0.309 119.613,-0.899 129.062,-1.559 50.668,-3.441 82.348,-13.359 98.168,-30.711 9.211,-10.07 13.551,-22.422 13.551,-38.508 0,-17.742 -3.52,-27.152 -14.141,-37.664 -10.937,-10.859 -22.699,-16.519 -46.64,-22.5 -7.77,-1.949 -13.789,-3.828 -13.36,-4.218 0.43,-0.391 4.801,-1.641 9.77,-2.809 50.152,-11.91 72.383,-28.91 76.75,-58.672 C 650,93.6992 649.301,78.6992 647.148,70.3008 642.539,52.4102 628.789,36.75 609.262,27.1797 599.84,22.6094 582.23,16.9102 571.41,14.9492 561.129,13.1211 526.09,12.1406 447.809,11.6289 405.352,11.3203 350.699,10.8516 326.371,10.5391 L 282.07,9.98828 Z m 232.5,18.5625 c 27.418,2.9688 43.95,11.2891 50.981,25.6172 3.508,7.1914 6.328,17.5 6.328,23.2422 0,6.3282 -3.207,18.6012 -6.141,23.6792 -3.437,5.782 -13.199,14.211 -20.859,17.961 -12.539,6.141 -24.879,7.539 -76.719,8.911 -19.801,0.55 -38,0.98 -40.461,0.98 H 423.16 V 43.0391 l 40.981,0.5507 c 22.539,0.3125 45.238,1.0118 50.429,1.6016 z M 490.43,178.699 c 14.84,0.473 29.34,1.332 32.191,1.922 7.578,1.641 18.399,7.219 24.219,12.539 8.859,8.121 12.18,18.711 10.699,34.25 -1.68,17.891 -13.519,30.469 -33.277,35.551 -8.871,2.269 -29.813,3.59 -70.082,4.41 L 423.16,268 v -90.238 l 20.16,0.078 c 11.059,0 32.27,0.39 47.11,0.859 z"
         style="fill:#000000;fill-opacity:1;fill-rule:nonzero;stroke:none"
         id="path45"
         inkscape:connector-curvature="0" /><path
         d="m 671.289,24.0117 v 11.0196 l 97.301,97.8907 c 53.519,53.867 107.539,108.437 120.039,121.328 l 22.742,23.359 -4.262,0.821 c -5.55,1.05 -112.808,0.039 -130.589,-1.25 -16.598,-1.211 -26.129,-2.969 -32.848,-6.059 -6.012,-2.73 -14.262,-10.23 -18.402,-16.641 -6.25,-9.761 -11.29,-28.39 -13.239,-49.25 -0.582,-5.98 -1.25,-12.269 -1.519,-13.949 l -0.473,-3.09 H 680.781 V 299.949 H 977.27 L 976.988,288.738 976.719,277.57 858.48,157.801 740.23,38.082 766.129,37.3398 c 38.711,-1.1406 116.961,-0.1601 125.859,1.5625 15.242,2.9297 28.524,9.2188 36.684,17.379 10.348,10.3476 17.457,33.9101 20.199,66.8397 l 1.168,13.938 H 977.23 V 13 H 671.332 Z"
         style="fill:#000000;fill-opacity:1;fill-rule:nonzero;stroke:none"
         id="path47"
         inkscape:connector-curvature="0" /></g></g></svg>